# xmcd CD database file
#
# Track frame offsets:
#	150
#	12648
#	24835
#	38685
#	55875
#	70373
#	82328
#	98788
#	109023
#	119228
#	139165
#	154640
#	170718
#	185658
#	204195
#
# Disc length: 2899 seconds
#
# Revision: 4
# Processed by: cddbd v1.5.2PL0 Copyright (c) Steve Scherf et al.
# Submitted via: CDex 1.70beta2
#
DISCID=d40b510f
DTITLE=オムニバス - 廃盤ベストコレクション（8CD)　disc02
DYEAR=1987
DGENRE=JPop
TTITLE0=ブルー・コメッツ - ブルー・シャトウ
TTITLE1=ブルー・コメッツ - 青い瞳
TTITLE2=いしだあゆみ - ブルー・ライト・ヨコハマ
TTITLE3=ジュディ・オング - たそがれの赤い月
TTITLE4=千賀かほる - 真夜中のギター
TTITLE5=ズー・ニー・ヴー - 白いサンゴ礁
TTITLE6=ちあきなおみ - 雨に濡れた慕情
TTITLE7=坂口良子 - サインはV
TTITLE8=ヒデとロザンナ - 愛の奇跡
TTITLE9=平山三紀 - 真夏の出来事
TTITLE10=平山三紀 - ビューティフル・ヨコハマ
TTITLE11=しばたはつみ - 合鍵
TTITLE12=庄野真代 - 飛んでイスタンブール
TTITLE13=ジューシィ・フルーツ - なみだ涙のカフェテラス
TTITLE14=ダ・カーポ - 結婚するって本当ですか
EXTD=YEAR: 1987
EXTT0=
EXTT1=
EXTT2=
EXTT3=
EXTT4=
EXTT5=
EXTT6=
EXTT7=
EXTT8=
EXTT9=
EXTT10=
EXTT11=
EXTT12=
EXTT13=
EXTT14=
PLAYORDER=
